<?xml version="1.0" standalone="no"?>
<!DOCTYPE svg PUBLIC "-//W3C//DTD SVG 20010904//EN"
 "http://www.w3.org/TR/2001/REC-SVG-20010904/DTD/svg10.dtd">
<svg version="1.0" xmlns="http://www.w3.org/2000/svg"
 width="900.000000pt" height="900.000000pt" viewBox="0 0 900.000000 900.000000"
 preserveAspectRatio="xMidYMid meet">
<metadata>
Created by potrace 1.15, written by Peter Selinger 2001-2017
</metadata>
<g transform="translate(0.000000,900.000000) scale(0.100000,-0.100000)"
fill="#000000" stroke="none">
<path d="M4175 8838 c-690 -50 -1402 -285 -1989 -656 -66 -42 -132 -85 -146
-95 -157 -115 -225 -168 -333 -257 -140 -116 -411 -385 -528 -525 -479 -573
-808 -1263 -943 -1980 -60 -321 -71 -443 -70 -825 0 -309 3 -377 22 -524 117
-886 451 -1640 1022 -2310 14 -16 54 -61 90 -100 764 -822 1752 -1304 2861
-1397 202 -17 687 -6 879 20 770 104 1459 383 2063 835 249 186 518 440 710
671 32 39 69 81 82 95 49 55 244 335 320 461 75 124 213 390 262 504 173 399
283 804 340 1255 14 117 18 214 18 505 -1 339 -2 371 -28 550 -105 726 -325
1302 -724 1894 -400 593 -1036 1144 -1668 1445 -198 94 -246 116 -258 116 -7
0 -17 4 -23 9 -14 13 -214 85 -359 129 -520 159 -1058 220 -1600 180z m308
-232 c69 -28 91 -120 41 -169 -14 -15 -35 -29 -45 -32 -10 -4 -19 -9 -19 -13
0 -12 109 -146 142 -174 l32 -28 -71 0 -71 0 -34 43 c-18 23 -41 51 -50 61
-10 11 -28 35 -41 53 -24 35 -47 49 -56 34 -3 -5 -4 -46 -1 -90 5 -82 18 -107
48 -96 6 2 12 0 12 -5 0 -6 -46 -9 -112 -9 -62 1 -103 4 -90 6 12 2 26 12 31
21 6 12 -1 360 -8 390 -1 1 -16 2 -33 2 -25 0 -29 3 -18 10 24 15 305 12 343
-4z m793 -11 c34 -8 86 -28 115 -45 l52 -31 30 22 30 22 -6 -24 c-3 -13 -11
-59 -18 -101 -7 -43 -16 -78 -19 -78 -3 0 -11 19 -17 43 -25 92 -119 167 -210
167 -85 0 -141 -51 -180 -161 -55 -158 -29 -299 62 -343 45 -22 139 -34 149
-18 3 6 12 43 20 82 13 68 12 74 -5 91 -11 11 -26 19 -34 19 -8 0 -15 5 -15
11 0 6 8 8 18 5 9 -3 71 -15 137 -27 104 -20 116 -24 88 -31 -34 -9 -46 -33
-59 -114 -10 -66 -13 -68 -116 -72 -200 -8 -336 57 -399 193 -23 50 -25 145
-4 206 30 87 112 158 214 185 61 17 94 17 167 -1z m-1289 -31 c107 -39 165
-190 114 -299 -39 -82 -94 -120 -193 -134 -78 -10 -143 7 -194 51 -112 99 -99
282 27 362 33 21 145 46 179 39 14 -2 44 -11 67 -19z m-412 -95 c19 -57 15
-73 -10 -36 -24 38 -66 52 -110 37 -26 -9 -34 -16 -31 -28 3 -10 26 -89 51
-177 26 -88 51 -166 58 -173 6 -7 21 -12 34 -9 13 2 23 1 23 -3 0 -4 -44 -20
-97 -35 -54 -15 -105 -30 -113 -32 -8 -3 -2 4 13 14 23 15 28 23 24 48 -5 29
-96 347 -102 353 -6 6 -71 -25 -88 -42 -9 -10 -17 -33 -17 -52 0 -41 -15 -45
-23 -5 -3 16 -9 40 -12 54 -7 25 -4 27 67 47 40 12 105 31 143 42 92 28 158
46 167 47 3 1 14 -22 23 -50z m2210 -49 c88 -29 163 -56 167 -59 4 -4 -1 -33
-11 -66 -18 -57 -25 -63 -22 -20 3 50 -60 106 -136 121 -27 5 -29 3 -55 -77
-15 -45 -25 -86 -22 -90 14 -23 59 -7 96 33 21 23 38 39 38 37 -1 -2 -18 -53
-40 -114 -36 -102 -39 -107 -39 -67 -1 32 -7 49 -26 67 -13 14 -28 25 -33 25
-13 0 -65 -158 -56 -171 12 -20 73 -39 123 -39 42 0 56 5 84 30 19 17 37 30
40 30 3 0 -6 -20 -20 -45 -27 -49 -25 -75 5 -75 28 0 45 24 107 155 94 196 89
179 59 214 -14 17 -23 31 -20 31 4 0 37 -16 75 -35 57 -28 71 -40 80 -67 14
-45 63 -237 68 -270 3 -16 9 -28 13 -28 7 0 100 191 100 207 0 5 -9 19 -20 31
-27 28 -24 28 49 -8 67 -34 76 -42 33 -34 -25 5 -32 1 -48 -28 -21 -37 -111
-225 -144 -303 -16 -37 -24 -46 -29 -35 -5 8 -34 113 -67 233 -32 119 -60 217
-63 217 -7 -1 -131 -271 -131 -286 0 -6 9 -19 20 -29 32 -29 17 -28 -51 4 -35
16 -148 57 -251 91 -175 57 -223 77 -164 66 14 -2 29 1 34 7 11 14 122 344
122 363 0 7 -12 21 -27 29 -34 20 -38 21 162 -45z m-2627 -89 c12 -30 20 -56
17 -59 -2 -3 -17 7 -31 21 -46 46 -144 49 -191 5 -43 -40 -56 -76 -50 -138 9
-100 86 -213 153 -226 66 -12 140 30 175 98 15 30 23 37 29 27 21 -33 -70
-127 -148 -153 -131 -45 -259 9 -298 127 -51 155 56 304 233 323 53 5 67 10
71 26 6 25 14 15 40 -51z m-493 -213 c28 -49 22 -64 -10 -28 -25 28 -84 26
-145 -5 -28 -14 -50 -27 -50 -29 0 -8 82 -146 89 -151 5 -2 18 5 29 16 24 21
28 53 12 93 -19 52 6 24 52 -57 65 -113 70 -130 27 -89 -37 34 -58 39 -90 21
-19 -10 -19 -12 12 -69 17 -32 40 -68 50 -79 19 -20 22 -20 49 -6 80 41 116
97 111 169 -1 17 2 27 5 23 8 -7 44 -106 44 -118 0 -8 -314 -189 -326 -189 -4
0 1 9 12 21 21 24 21 23 -113 263 l-55 98 -37 -5 c-35 -6 -35 -6 -11 8 14 8
88 50 165 93 77 44 143 77 146 73 4 -3 19 -27 34 -53z m3956 -80 c200 -124
187 -112 166 -151 -40 -73 -68 -90 -46 -29 9 26 7 37 -8 62 -16 27 -95 90
-113 90 -3 0 -27 -35 -53 -77 -50 -83 -49 -93 9 -93 21 0 40 9 58 27 14 14 28
24 30 22 2 -2 -16 -35 -40 -74 -24 -38 -49 -80 -56 -92 -16 -31 -30 -29 -18 3
14 37 12 65 -7 86 -24 27 -35 23 -68 -29 -66 -108 -66 -108 4 -147 59 -32 112
-33 157 -5 44 27 43 14 -3 -33 -30 -31 -34 -40 -23 -53 19 -22 43 -18 72 13
61 63 208 257 208 273 0 10 -7 25 -16 33 -26 26 -1 18 31 -10 17 -14 63 -51
104 -82 132 -100 163 -175 102 -244 -23 -25 -36 -32 -67 -32 -22 0 -46 2 -54
4 -12 4 -16 -14 -22 -104 -9 -129 -2 -150 45 -143 31 4 119 34 330 111 53 19
97 31 97 27 0 -5 -15 -48 -34 -97 -125 -330 -126 -334 -117 -358 10 -26 36
-40 54 -29 14 8 202 151 260 197 37 30 39 35 22 81 -4 11 7 0 26 -24 19 -24
51 -64 72 -90 39 -48 50 -76 19 -48 -27 24 -42 21 -92 -19 -25 -20 -87 -68
-138 -107 -52 -39 -96 -76 -99 -84 -8 -19 63 -109 97 -123 29 -12 86 -10 123
5 9 4 17 3 17 -1 0 -5 -29 -25 -64 -45 l-63 -36 -20 26 c-12 14 -64 82 -118
151 -53 69 -130 160 -170 203 -40 42 -69 77 -65 77 5 0 12 -4 15 -10 14 -22
37 -7 56 37 l20 47 -60 59 c-58 59 -60 60 -90 47 -46 -19 -56 -35 -42 -68 11
-23 6 -21 -35 18 -27 25 -51 47 -54 50 -3 3 -24 21 -48 39 l-43 34 2 122 c2
114 -2 145 -19 145 -4 0 -28 -27 -54 -59 -49 -59 -58 -87 -36 -109 30 -30 -10
-8 -56 31 -56 47 -163 118 -326 217 -129 78 -130 79 -89 77 32 -2 36 2 131
153 53 85 98 159 98 164 0 6 -10 20 -22 33 -12 13 -19 23 -16 23 3 0 66 -37
139 -82z m-4285 -139 c54 -50 37 -130 -40 -195 -25 -21 -46 -42 -46 -46 0 -13
84 -127 98 -133 7 -3 23 0 34 6 11 6 21 9 24 7 2 -2 -36 -32 -83 -66 -48 -33
-90 -58 -93 -55 -3 3 1 8 8 10 27 10 6 55 -92 193 l-103 145 -38 -2 c-38 -3
-38 -2 56 63 52 36 112 75 134 85 50 24 108 19 141 -12z m2449 21 c178 -16
320 -39 484 -77 792 -181 1488 -635 1976 -1288 369 -493 585 -1041 661 -1675
19 -161 22 -550 5 -715 -83 -805 -425 -1522 -1000 -2095 -552 -551 -1242 -881
-2036 -976 -162 -19 -548 -22 -705 -5 -483 51 -928 190 -1328 413 -749 417
-1302 1079 -1586 1896 -171 493 -224 1079 -145 1607 103 689 405 1324 864
1814 311 332 608 557 994 751 375 189 851 324 1226 347 50 3 92 7 94 9 9 8
393 3 496 -6z m-2826 -260 c44 -52 44 -59 1 -35 -90 51 -230 -44 -163 -110 19
-19 60 -17 178 9 86 19 132 9 169 -35 56 -66 21 -174 -73 -221 -67 -34 -83
-48 -77 -65 11 -29 -13 -10 -64 48 -30 34 -50 60 -44 58 109 -46 139 -47 201
-9 23 14 34 29 39 55 13 71 -40 91 -156 60 -109 -29 -185 -13 -215 45 -21 41
-19 77 9 124 24 42 38 52 110 80 27 11 36 20 32 31 -11 29 11 14 53 -35z
m-287 -172 c-7 -7 -12 -20 -12 -29 0 -9 66 -80 147 -157 81 -77 146 -143 143
-145 -3 -3 -108 1 -234 9 -126 8 -231 12 -234 10 -5 -6 182 -186 214 -206 20
-12 28 -13 45 -2 35 22 29 9 -20 -45 -54 -60 -68 -67 -43 -23 l17 30 -100 98
c-128 125 -174 164 -189 159 -58 -22 -59 -19 -5 38 l54 57 125 -6 c69 -3 150
-9 180 -12 l55 -6 -65 66 c-36 37 -80 76 -98 88 -32 19 -34 19 -52 3 -11 -10
-20 -15 -20 -11 0 11 93 107 98 101 3 -3 0 -11 -6 -17z m-376 -300 c-22 -31
-20 -61 7 -85 53 -49 383 -303 394 -303 6 0 25 12 42 26 47 39 37 12 -22 -58
-29 -35 -72 -89 -96 -121 -45 -62 -64 -70 -36 -17 14 27 14 35 3 51 -19 27
-398 319 -415 319 -8 0 -25 -12 -40 -26 -53 -53 -32 -11 39 78 41 51 85 108
98 126 26 35 50 45 26 10z m7018 -2679 c23 -1 91 -4 151 -8 l110 -6 -131 -95
c-73 -52 -130 -98 -128 -101 5 -9 207 -11 220 -2 6 5 14 15 17 23 3 8 6 -6 6
-32 l1 -48 -20 20 c-18 18 -33 20 -144 20 -118 0 -126 -1 -141 -22 -15 -22
-16 -20 -9 32 8 61 6 59 121 140 l77 55 -69 6 c-47 4 -79 2 -97 -7 l-28 -12 1
41 c0 38 1 40 11 20 9 -18 20 -23 52 -24z m-7401 -100 l7 -76 -98 -85 c-157
-138 -177 -156 -172 -161 3 -2 56 0 119 5 117 8 151 21 151 56 0 38 9 0 15
-62 5 -48 4 -66 -4 -62 -6 4 -11 14 -11 21 0 23 -37 37 -83 31 -23 -3 -81 -8
-129 -11 -49 -3 -126 -8 -173 -11 -58 -5 -85 -3 -85 4 0 6 6 15 14 19 8 4 49
40 92 78 126 114 136 123 201 178 34 28 59 55 55 58 -10 8 -269 -10 -314 -22
-30 -8 -39 -16 -47 -42 l-9 -32 -2 30 c0 17 -3 55 -6 85 l-4 55 15 -34 15 -34
153 8 c218 12 222 12 245 19 11 4 25 20 32 37 7 16 14 28 15 27 1 -2 5 -37 8
-79z m7576 -207 c128 -104 29 -311 -132 -277 -76 16 -136 85 -137 156 0 58 45
125 100 148 45 19 129 6 169 -27z m-8007 -203 c2 -5 72 -27 156 -49 85 -21
155 -40 157 -42 2 -1 -57 -41 -131 -86 -81 -50 -138 -92 -143 -105 -6 -17 -11
-7 -20 44 -14 82 -14 87 2 66 11 -16 14 -16 43 2 30 18 31 22 27 68 -6 55 -8
58 -45 67 -21 5 -30 1 -42 -16 -15 -21 -16 -21 -16 -3 0 11 -3 30 -6 43 -6 21
11 33 18 11z m7868 -123 c58 -9 114 -19 126 -21 14 -3 25 2 33 18 11 22 11 22
7 -3 -3 -14 -8 -46 -11 -72 -7 -45 -7 -46 -26 -27 -10 10 -23 19 -28 19 -4 0
-61 9 -126 20 -93 17 -120 18 -126 8 -10 -16 -2 -28 21 -28 28 0 33 -17 7 -24
-21 -5 -47 -42 -47 -65 0 -5 28 -14 63 -20 34 -7 95 -21 135 -31 l72 -18 16
21 c15 21 16 21 11 2 -3 -11 -11 -45 -18 -75 -10 -44 -13 -50 -20 -33 -6 16
-24 24 -86 38 -43 9 -102 23 -131 30 -53 13 -53 13 -63 -11 -12 -34 -13 -31
19 -61 l27 -25 -35 7 c-19 4 -37 9 -39 11 -2 1 8 56 23 121 14 65 31 150 38
190 11 68 13 70 32 58 12 -7 68 -20 126 -29z m-7510 -193 c15 -65 35 -143 44
-173 27 -97 29 -107 16 -87 -15 23 -17 22 -155 -17 -92 -25 -123 -38 -131 -54
-10 -20 -12 -17 -22 26 -6 26 -14 58 -18 72 -6 24 -6 24 9 6 16 -22 20 -21
211 38 78 23 106 52 40 40 l-39 -7 23 25 c21 23 30 72 14 82 -4 2 -65 -9 -135
-26 -106 -25 -130 -34 -136 -51 -7 -17 -10 -11 -20 33 -7 30 -15 64 -18 75 -5
20 -5 20 10 0 15 -19 16 -19 143 9 71 15 132 30 136 32 4 3 2 18 -4 34 -7 21
-19 32 -41 39 l-32 8 35 10 c19 6 37 9 39 7 2 -2 16 -56 31 -121z m7584 -251
c-13 -45 -18 -51 -33 -42 -10 5 -31 6 -46 1 -22 -5 -32 -17 -43 -49 -16 -50
-12 -68 23 -84 22 -10 28 -9 37 3 16 24 1 -45 -23 -101 l-21 -49 -82 -18 c-52
-12 -81 -23 -81 -32 0 -21 92 -53 116 -41 23 13 24 17 -5 -53 -16 -41 -25 -53
-28 -40 -4 13 -42 33 -131 67 -69 26 -130 45 -136 41 -15 -9 -14 -25 2 -25 7
0 22 -6 33 -14 18 -14 17 -15 -15 -14 -33 1 -61 -21 -61 -48 0 -11 122 -74
213 -111 33 -14 40 -14 48 -2 18 29 9 -11 -13 -56 -22 -44 -38 -58 -38 -32 0
12 -104 66 -218 114 -31 13 -33 12 -42 -12 -14 -37 -13 -41 13 -66 20 -20 20
-21 2 -14 -11 4 -28 10 -37 12 -10 3 -18 9 -18 13 0 5 25 62 56 127 31 65 67
149 81 188 43 116 66 145 120 145 39 0 73 -30 73 -63 0 -13 2 -26 5 -29 3 -3
40 4 83 16 62 18 77 25 77 41 0 12 -44 56 -123 122 -67 57 -121 104 -120 104
5 2 37 6 173 19 72 6 139 18 150 25 11 7 21 12 22 11 1 -1 -5 -25 -13 -54z
m-7516 -89 c62 -45 83 -152 44 -215 -43 -69 -146 -97 -219 -60 -46 24 -67 51
-83 111 -9 35 -8 48 8 85 20 43 69 89 107 99 39 11 116 0 143 -20z m122 -269
l20 -46 -55 -93 c-48 -82 -63 -115 -52 -115 2 0 27 11 55 25 29 14 55 25 59
25 3 0 15 8 25 17 17 15 19 15 33 -3 20 -26 18 -37 -4 -25 -18 10 -74 -10
-246 -89 -22 -10 -41 -17 -42 -16 -2 1 31 65 72 141 41 76 75 141 75 146 0 14
-195 -80 -206 -101 -11 -19 -11 -19 -22 5 -16 34 -15 38 3 31 9 -3 62 15 118
39 132 58 131 58 135 84 5 31 10 26 32 -25z m6834 -335 c42 -25 44 -28 12 -22
-55 11 -117 -55 -86 -92 19 -23 48 -18 101 16 27 17 67 33 88 36 35 5 44 2 72
-26 28 -28 31 -37 26 -73 -4 -27 -16 -51 -36 -72 -17 -18 -31 -40 -31 -50 0
-16 -3 -16 -37 5 -56 33 -63 42 -27 35 64 -14 126 40 109 94 -11 35 -42 33
-109 -4 -78 -44 -126 -47 -161 -11 -38 37 -34 85 10 133 19 22 32 42 28 46
-13 12 7 6 41 -15z m-6664 -14 c0 -3 -9 -15 -19 -27 -144 -171 -178 -216 -183
-243 -2 -13 -13 -1 -37 45 -19 36 -28 59 -20 53 19 -18 22 -17 47 17 l23 30
-27 45 c-25 44 -43 53 -78 39 -9 -3 -16 -16 -16 -28 0 -18 -3 -16 -20 12 -24
38 -27 60 -7 43 10 -8 52 -7 158 3 181 17 179 17 179 11z m125 -218 c16 -27
16 -28 -2 -17 -16 10 -35 2 -127 -56 -59 -37 -110 -74 -113 -81 -3 -7 7 -32
22 -54 26 -40 28 -41 76 -37 27 1 49 2 49 1 0 -5 -79 -43 -88 -43 -6 0 -39 47
-75 105 -37 59 -58 101 -49 96 14 -7 40 5 118 55 54 36 108 74 119 85 20 19
20 19 36 -3 9 -12 25 -35 34 -51z m6533 -47 c89 -54 105 -60 119 -49 16 13 -4
-26 -43 -84 -11 -17 -12 -17 -16 1 -5 18 -213 152 -237 152 -15 0 -14 7 10 50
l22 38 21 -23 c11 -12 67 -50 124 -85z m-202 -8 c-8 -22 9 -37 138 -128 l99
-69 -44 -7 c-24 -3 -84 -7 -134 -8 -49 -2 -103 -5 -119 -9 -28 -6 -26 -8 60
-69 67 -47 95 -61 112 -57 l24 6 -27 -36 c-15 -19 -28 -35 -29 -35 -1 0 -2 11
-1 24 0 19 -20 38 -100 95 -55 39 -107 71 -116 71 -9 0 -24 -9 -33 -19 -17
-18 -16 -20 16 -49 81 -74 191 -150 206 -144 9 3 -1 -16 -23 -42 -35 -43 -40
-46 -46 -28 -10 27 -196 174 -216 170 -9 -2 -21 -11 -27 -21 -9 -15 3 -31 89
-112 55 -52 106 -94 114 -95 8 0 20 8 28 18 13 16 13 15 4 -3 -15 -32 -101
-112 -95 -88 4 15 -15 39 -81 102 -48 45 -90 79 -93 76 -3 -3 1 -20 10 -38 62
-121 106 -217 99 -217 -5 0 -68 22 -140 49 -72 27 -131 46 -131 42 0 -3 41
-43 90 -89 78 -71 94 -81 110 -72 29 16 24 -2 -9 -34 -25 -24 -29 -25 -25 -9
4 15 -17 40 -92 109 -53 49 -105 89 -115 88 -11 0 -19 2 -19 5 0 10 64 71 75
71 5 0 50 -16 99 -35 49 -19 92 -33 95 -30 3 3 -15 47 -41 98 l-45 92 108 136
107 136 54 6 c29 4 81 7 116 7 34 0 62 4 62 8 0 4 -30 27 -66 51 -57 37 -70
42 -86 32 -15 -9 -13 -3 8 29 29 43 39 51 30 22z m-5934 -274 c-22 -38 -97
-180 -166 -315 -40 -79 -45 -96 -36 -114 20 -37 -4 -16 -61 51 -72 86 -73 87
-41 83 23 -4 30 2 50 39 12 24 22 47 22 51 0 5 -21 35 -47 68 -38 46 -53 57
-70 54 -72 -16 -96 -42 -74 -77 25 -41 2 -27 -43 26 -25 30 -42 57 -37 60 5 4
12 2 16 -4 11 -17 44 -10 275 59 124 37 226 63 228 59 2 -4 -5 -23 -16 -40z
m152 -356 l40 -43 -33 -32 c-25 -24 -30 -26 -22 -10 6 12 11 31 11 42 0 19
-45 81 -59 81 -12 0 -91 -78 -91 -89 0 -16 38 -23 60 -11 38 20 31 5 -21 -46
-45 -44 -49 -46 -39 -20 10 28 6 66 -8 66 -13 0 -92 -82 -92 -95 0 -7 14 -25
32 -40 27 -23 39 -26 76 -22 l44 5 -34 -28 -33 -29 -83 82 c-67 67 -79 83 -65
88 33 13 205 197 197 211 -11 18 73 -59 120 -110z m5318 -75 c78 -47 112 -125
84 -192 -18 -42 -127 -148 -238 -230 -75 -56 -104 -71 -67 -34 25 25 17 38
-43 69 l-41 21 -36 -25 c-94 -66 -96 -69 -83 -113 16 -54 35 -69 67 -55 42 19
27 -1 -30 -40 -57 -40 -76 -48 -55 -23 16 20 12 47 -51 301 -28 113 -49 208
-46 210 2 2 100 -52 218 -121 117 -69 217 -125 222 -125 18 0 47 22 47 35 0 8
-42 60 -92 115 -72 78 -97 100 -112 96 -29 -8 81 89 129 114 51 26 81 25 127
-3z m-5175 -55 c74 -65 91 -99 73 -142 -15 -37 -37 -50 -83 -50 l-35 0 -8 -67
c-5 -38 -7 -76 -6 -86 1 -14 -2 -16 -16 -8 -44 24 -50 41 -39 128 6 46 7 86 4
90 -11 10 -87 -68 -87 -90 0 -16 -6 -14 -41 13 -38 31 -39 33 -20 44 12 6 57
53 102 105 56 65 79 100 76 112 -7 24 3 19 80 -49z m216 -181 c47 -18 94 -69
107 -116 11 -39 10 -51 -4 -90 -31 -80 -110 -126 -191 -111 -49 10 -111 71
-120 120 -23 122 100 238 208 197z m209 -146 c32 -22 37 -31 42 -77 3 -29 9
-84 14 -123 l7 -70 44 74 c38 62 43 76 33 92 -16 25 -7 24 30 -3 29 -20 30
-22 11 -29 -12 -4 -54 -60 -94 -123 -40 -64 -76 -116 -79 -116 -4 0 -13 70
-20 155 -9 98 -17 154 -24 152 -21 -7 -116 -181 -110 -201 6 -18 4 -18 -25 3
-34 25 -39 33 -15 29 11 -2 38 32 85 105 72 113 77 125 57 145 -21 21 6 13 44
-13z m4041 -96 c21 -37 15 -49 -11 -26 -10 10 -26 17 -34 17 -25 0 -78 -33
-78 -48 0 -17 50 -102 60 -102 18 0 32 31 25 57 -8 35 3 24 43 -42 34 -55 34
-69 -1 -36 -24 22 -57 20 -57 -3 0 -15 58 -106 68 -106 12 0 62 36 77 56 8 10
15 33 15 49 l2 30 13 -30 c8 -16 14 -35 15 -42 0 -7 -33 -31 -72 -54 -40 -23
-88 -51 -107 -62 -33 -20 -33 -20 -23 0 9 16 -1 39 -57 134 -37 63 -75 115
-84 117 -21 4 -22 -19 -2 -58 18 -34 7 -39 -20 -10 -27 29 -89 27 -120 -5 -64
-63 15 -255 105 -255 35 0 77 28 92 60 7 16 16 30 20 30 13 0 9 -13 -12 -47
-40 -66 -150 -93 -214 -53 -36 21 -72 79 -79 126 -13 86 70 184 157 184 14 0
29 6 33 14 7 11 207 133 223 135 3 1 13 -13 23 -30z m-3718 -264 c-11 -117
-12 -161 -4 -171 16 -20 9 -18 -50 15 -38 20 -48 30 -37 34 11 4 16 19 16 44
-1 35 -5 40 -47 61 l-47 23 -24 -25 c-21 -21 -23 -27 -12 -40 17 -21 3 -19
-40 4 -26 14 -30 19 -15 20 11 0 76 45 144 100 68 55 126 99 128 97 2 -2 -4
-75 -12 -162z m171 86 c5 -5 27 -14 49 -21 32 -10 36 -14 21 -20 -22 -7 -106
-190 -108 -234 -1 -35 24 -56 68 -56 42 0 60 23 109 137 31 73 35 90 25 106
-11 18 -10 19 7 12 10 -4 86 -31 168 -59 l150 -52 -16 -33 -16 -34 -6 32 c-8
40 -55 63 -71 34 -6 -10 -11 -22 -12 -28 -2 -5 -18 -56 -38 -112 -31 -92 -33
-105 -20 -118 21 -20 12 -19 -60 8 -38 14 -54 23 -41 25 16 2 29 28 63 126 23
68 42 128 42 134 0 5 -12 13 -27 17 -19 4 -35 0 -56 -16 -28 -20 -30 -20 -23
-3 18 43 19 57 5 52 -8 -2 -26 -31 -41 -64 -65 -139 -83 -168 -111 -177 -40
-13 -88 -1 -127 32 -45 37 -44 69 9 190 23 54 39 103 35 113 -6 19 6 24 22 9z
m2537 -115 c23 -85 22 -87 -14 -43 -57 70 -130 87 -174 42 -48 -47 -23 -96 63
-121 107 -31 162 -56 187 -86 52 -62 41 -146 -28 -202 -36 -29 -45 -31 -114
-31 -62 0 -77 -3 -89 -19 -16 -22 -14 -25 -39 78 -9 38 -14 70 -12 72 2 2 15
-13 28 -33 64 -100 201 -107 224 -13 11 45 -24 74 -122 105 -120 37 -138 48
-162 98 -26 55 -26 80 0 127 30 52 81 75 154 67 43 -4 57 -2 62 9 10 26 19 14
36 -50z m514 -97 l119 -117 -50 -18 c-52 -19 -74 -26 -56 -17 17 8 11 28 -14
52 -25 23 -25 23 -71 5 -26 -9 -49 -23 -52 -31 -9 -23 7 -63 25 -63 10 -1 3
-8 -18 -20 -40 -21 -46 -20 -32 7 6 10 12 87 13 170 2 84 7 152 11 150 4 -1
60 -54 125 -118z m-239 45 c56 -39 47 -112 -17 -141 -60 -28 -61 -28 -38 -88
12 -35 26 -55 35 -55 26 0 1 -16 -52 -34 -52 -17 -65 -16 -43 3 12 9 8 31 -26
139 -22 71 -47 131 -56 136 -12 7 1 15 54 32 85 27 113 29 143 8z m-2229 -46
c38 -10 41 -13 22 -18 -21 -5 -28 -21 -57 -125 -37 -131 -40 -151 -21 -159 22
-11 -57 6 -93 20 -25 9 -29 13 -14 13 19 1 26 17 58 132 20 73 35 138 32 146
-4 10 -1 13 12 9 9 -2 37 -10 61 -18z m260 -68 c26 -18 35 -19 46 -10 13 11
14 8 8 -21 -3 -19 -10 -43 -14 -54 -7 -18 -8 -18 -9 5 -2 74 -114 117 -163 62
-24 -27 -45 -86 -48 -135 -6 -103 55 -151 146 -113 46 20 45 3 -1 -19 -44 -21
-96 -15 -149 16 -88 52 -94 182 -13 257 51 47 141 52 197 12z m207 -29 c24
-15 35 -17 44 -8 10 10 11 7 6 -13 -3 -14 -6 -36 -6 -50 -1 -24 -1 -24 -14 5
-25 56 -71 82 -105 59 -34 -24 -25 -45 46 -110 62 -56 67 -64 66 -100 -2 -74
-92 -120 -151 -78 -13 9 -32 14 -43 11 -19 -5 -20 -2 -14 46 8 64 11 67 19 23
7 -38 55 -86 87 -86 24 0 58 33 55 54 -1 9 -32 45 -69 79 -54 50 -67 68 -67
92 0 77 78 117 146 76z m1022 -31 c45 -28 76 -98 69 -158 -9 -83 -62 -125
-174 -136 -35 -4 -70 -9 -79 -13 -15 -5 -15 -4 -2 18 13 21 13 39 -1 154 -14
111 -19 130 -35 133 -34 7 -39 -13 -37 -165 1 -143 1 -147 -16 -127 -10 12
-56 67 -102 123 -46 55 -87 101 -91 101 -4 0 -5 -48 -2 -107 3 -79 8 -111 19
-120 22 -17 5 -21 -72 -18 -116 4 -114 3 -108 23 2 10 0 30 -6 45 -10 25 -15
27 -65 27 -51 0 -54 -2 -67 -31 -11 -28 -10 -33 6 -45 17 -13 16 -14 -17 -14
-38 0 -58 14 -34 23 8 3 26 32 41 64 15 32 47 98 70 147 l42 88 43 -118 c60
-166 79 -204 100 -204 36 0 41 22 34 154 -6 113 -9 129 -28 142 -19 13 -17 14
30 14 49 0 53 -2 95 -52 24 -29 56 -69 72 -90 15 -21 31 -38 36 -38 5 0 7 35
4 78 -4 60 -9 81 -24 94 -19 16 -17 17 63 21 201 8 202 8 236 -13z"/>
<path d="M4302 8503 c3 -110 5 -113 78 -93 33 9 44 18 56 45 19 47 14 83 -17
116 -22 24 -35 29 -73 29 l-47 0 3 -97z"/>
<path d="M3813 8550 c-92 -37 -76 -301 23 -379 48 -38 128 -19 153 35 43 94 0
307 -69 344 -23 12 -77 12 -107 0z"/>
<path d="M6925 7694 c-27 -35 -51 -71 -53 -78 -4 -18 58 -56 93 -56 19 0 38
12 61 36 46 48 46 88 1 132 -18 18 -37 32 -42 31 -6 0 -32 -29 -60 -65z"/>
<path d="M2140 7852 l-22 -18 52 -72 c29 -40 58 -72 65 -72 6 0 20 9 30 20 27
30 15 97 -25 133 -35 31 -69 34 -100 9z"/>
<path d="M4290 7839 c-600 -36 -1226 -256 -1710 -602 -234 -167 -512 -427
-677 -632 -624 -778 -871 -1786 -676 -2755 90 -450 246 -824 509 -1220 212
-319 525 -637 859 -871 225 -158 520 -310 780 -402 497 -175 1008 -233 1519
-172 626 74 1212 322 1710 724 218 175 490 466 621 663 27 40 51 75 54 78 3 3
11 14 18 25 7 11 38 63 69 115 238 393 381 811 450 1320 24 177 25 606 1 785
-87 652 -318 1202 -713 1700 -154 194 -419 448 -636 608 -515 380 -1126 597
-1793 637 -186 11 -189 11 -385 -1z m227 -271 c7 -34 17 -66 22 -71 16 -16
100 -10 171 12 102 32 110 30 229 -58 90 -67 232 -151 256 -151 4 0 21 -6 38
-14 18 -8 86 -32 152 -52 l120 -37 -43 -18 c-39 -17 -42 -21 -42 -58 0 -29 7
-47 25 -65 20 -20 25 -35 24 -68 -1 -31 17 -94 63 -218 36 -96 116 -313 178
-482 l113 -308 44 0 43 0 0 -55 0 -55 -520 0 -520 0 0 55 0 55 45 0 c28 0 47
5 50 13 2 6 84 229 181 495 97 265 173 489 170 497 -7 20 12 72 30 79 9 4 14
21 14 51 0 44 -1 45 -33 45 -89 0 -206 47 -347 139 -127 82 -146 88 -275 72
-102 -13 -157 -9 -183 11 -8 8 -30 5 -69 -7 -51 -16 -67 -17 -138 -7 -45 7
-97 12 -117 12 -44 0 -116 -32 -188 -84 -87 -62 -206 -114 -292 -128 l-78 -13
0 -43 c0 -27 5 -45 14 -48 20 -8 39 -59 31 -83 -4 -14 7 -55 29 -114 19 -50
76 -204 126 -342 50 -137 99 -272 110 -300 10 -27 33 -90 50 -140 18 -49 36
-94 41 -99 5 -6 27 -9 49 -8 l40 3 0 -56 0 -55 -520 0 -519 0 -6 34 c-11 55 1
78 38 76 49 -3 54 -1 60 18 3 9 82 226 177 482 130 352 172 475 171 508 -1 33
4 48 24 68 21 21 25 34 23 67 -3 38 -6 41 -46 55 -42 14 -49 32 -11 32 33 0
259 79 346 121 45 21 118 67 163 101 145 111 148 112 248 79 32 -11 83 -21
113 -23 53 -3 54 -2 71 32 9 19 19 53 22 75 2 22 5 42 5 44 3 17 18 -20 28
-71z m8 -478 c15 -47 31 -90 36 -96 5 -6 50 -23 100 -39 50 -15 87 -31 82 -35
-4 -4 -45 -20 -90 -34 -45 -15 -86 -33 -91 -39 -5 -7 -21 -50 -37 -97 -15 -47
-29 -86 -30 -88 -2 -2 -18 41 -35 96 l-33 100 -88 27 c-49 15 -89 31 -89 35 0
5 39 21 86 37 l87 29 29 79 c25 70 34 97 37 114 2 11 11 -11 36 -89z m-1670
-407 c20 -56 20 -57 85 -79 39 -13 59 -24 50 -28 -8 -3 -37 -13 -65 -23 -45
-17 -51 -23 -68 -68 -10 -28 -20 -57 -23 -65 -4 -9 -15 11 -28 50 l-22 65 -62
20 c-34 10 -62 22 -62 26 0 3 27 14 60 24 l59 18 22 64 c11 35 24 61 27 58 4
-4 16 -32 27 -62z m3341 15 c22 -70 27 -75 90 -95 30 -9 54 -20 54 -23 0 -4
-27 -15 -60 -25 l-59 -18 -22 -64 c-12 -36 -24 -61 -28 -56 -4 4 -15 33 -25
64 -18 56 -19 57 -77 74 -33 10 -59 21 -59 25 0 3 25 14 55 25 64 21 67 24 85
85 23 76 23 76 46 8z m-4002 -420 c72 -30 77 -35 70 -77 -10 -72 47 -127 262
-252 76 -44 146 -87 154 -95 29 -28 -12 -14 -129 45 -255 127 -434 262 -488
364 -23 44 -12 57 38 46 23 -6 65 -19 93 -31z m4772 28 c17 -45 -101 -165
-278 -282 -81 -54 -290 -164 -337 -179 -41 -13 -14 12 62 57 40 24 79 47 88
53 9 5 32 18 50 29 49 27 140 95 167 125 24 28 30 45 34 101 3 31 8 38 53 59
43 21 123 48 148 50 4 1 10 -5 13 -13z m-4536 -94 c541 -335 611 -379 738
-474 184 -138 336 -314 363 -421 6 -27 9 -72 6 -101 -5 -54 -46 -162 -77 -206
-28 -41 -70 -168 -70 -215 0 -51 32 -140 63 -175 13 -14 54 -52 92 -85 39 -33
72 -62 75 -65 8 -10 242 -212 283 -246 l38 -31 -83 -41 c-46 -23 -96 -49 -111
-59 l-28 -18 -67 70 c-37 39 -90 98 -118 130 -55 64 -161 190 -181 215 -6 8
-31 40 -55 70 -95 120 -113 174 -105 323 3 60 16 143 31 204 54 212 27 347
-111 560 -58 90 -194 192 -488 368 -232 138 -349 227 -328 249 15 14 44 3 133
-52z m4290 45 c0 -31 -94 -101 -315 -234 -193 -116 -254 -155 -341 -219 -166
-123 -266 -285 -295 -478 -10 -65 -8 -84 22 -226 42 -196 45 -337 11 -413 -12
-26 -26 -53 -32 -60 -5 -6 -25 -31 -42 -54 -68 -85 -132 -166 -143 -177 -5 -6
-35 -40 -65 -76 -30 -36 -76 -87 -101 -115 -26 -27 -61 -67 -79 -87 -37 -43
-51 -46 -90 -18 -15 11 -67 38 -114 61 l-85 41 127 96 c114 85 152 116 282
227 195 167 210 258 85 510 -82 163 -89 232 -36 340 77 156 279 339 579 526
70 43 225 140 346 216 120 76 226 141 235 145 27 11 51 9 51 -5z m0 -82 c0
-32 -94 -105 -276 -212 -299 -176 -383 -233 -460 -310 -39 -39 -85 -95 -103
-125 -17 -29 -31 -49 -31 -44 -1 29 101 178 155 228 45 41 228 169 325 226
212 126 340 208 370 238 18 18 20 18 20 -1z m-4395 -5 c10 -16 345 -230 361
-230 12 0 279 -187 321 -224 46 -41 139 -172 156 -218 11 -31 0 -19 -29 30
-39 67 -136 165 -224 227 -62 43 -252 158 -410 248 -99 56 -200 139 -200 164
0 15 16 17 25 3z m108 -271 c123 -35 188 -72 276 -160 70 -69 80 -82 71 -99
-13 -25 -12 -25 -90 4 -197 71 -323 140 -393 215 -26 27 -47 55 -47 62 0 15
86 4 183 -22z m4330 25 c11 -11 -44 -73 -106 -119 -33 -25 -92 -61 -132 -80
-67 -33 -251 -105 -267 -105 -4 0 -12 9 -18 20 -10 18 -1 30 70 101 95 95 175
137 321 168 104 22 123 24 132 15z m-2829 -145 c-37 -38 -131 -83 -209 -99
-83 -17 -216 -7 -299 24 -61 22 -155 81 -156 99 0 4 156 7 347 7 l347 0 -30
-31z m1782 2 c-84 -87 -274 -132 -428 -100 -66 13 -188 72 -219 105 l-22 24
348 0 349 0 -28 -29z m-2754 -107 c134 -123 197 -231 234 -404 17 -77 17 -82
-4 -167 -24 -99 -52 -278 -52 -332 0 -53 37 -177 72 -244 30 -55 90 -115 223
-222 67 -52 255 -248 249 -257 -3 -5 -14 -8 -24 -8 -10 0 -21 -9 -25 -20 -3
-11 -21 -38 -40 -60 -38 -45 -39 -44 -50 53 -3 31 -10 57 -15 57 -5 0 -18 -12
-29 -27 -41 -55 -56 -73 -65 -73 -4 0 -5 31 -1 69 7 71 -2 94 -26 65 -14 -17
-94 -74 -103 -74 -12 0 -5 47 14 89 11 24 20 47 20 52 0 15 -25 10 -84 -17
-32 -14 -60 -24 -62 -21 -7 7 24 67 49 95 16 17 18 25 9 34 -9 9 -17 10 -30 1
-26 -16 -99 -26 -106 -15 -3 6 14 33 39 60 50 55 47 64 -18 62 -23 -1 -55 -1
-71 -1 -27 1 -28 2 -13 19 9 10 44 33 77 52 33 19 59 39 57 44 -2 7 -40 11
-94 11 -50 0 -95 3 -99 7 -12 12 14 35 67 57 51 23 62 48 18 43 -61 -7 -168
-6 -176 1 -13 14 41 54 99 72 97 32 100 55 8 55 -72 0 -162 18 -154 31 8 13
69 38 141 56 64 16 84 39 41 47 -82 16 -176 40 -192 48 -18 10 -18 11 7 24 14
8 56 17 94 21 91 10 92 31 3 54 -172 44 -160 69 35 76 66 2 126 6 134 9 24 8
-8 30 -64 43 -82 20 -206 72 -202 84 3 9 46 11 150 9 173 -3 190 10 72 53 -71
25 -195 87 -195 97 0 4 36 8 80 8 61 0 80 3 80 14 0 7 -38 38 -85 67 -47 30
-85 57 -85 61 0 9 10 11 59 12 19 1 36 6 38 12 2 6 -22 29 -54 51 -124 88
-132 105 -43 100 50 -3 66 -8 92 -33z m3248 27 c0 -12 -57 -61 -113 -96 -62
-40 -63 -63 -1 -63 25 0 48 -2 50 -5 3 -3 -34 -31 -82 -63 -48 -33 -88 -64
-88 -69 -1 -6 35 -11 82 -13 45 -2 82 -6 82 -11 0 -9 -124 -69 -216 -104 -57
-22 -83 -55 -39 -50 11 2 77 6 146 9 154 8 172 -2 76 -46 -36 -16 -98 -39
-138 -50 -39 -11 -74 -22 -77 -25 -15 -15 24 -23 133 -28 66 -2 131 -9 144
-14 l25 -10 -25 -16 c-14 -10 -59 -25 -100 -35 -100 -25 -100 -44 -1 -54 71
-7 112 -21 112 -37 0 -9 -87 -35 -155 -47 -48 -8 -77 -22 -70 -33 3 -5 29 -14
57 -21 63 -15 148 -49 148 -60 0 -14 -34 -22 -127 -27 -112 -7 -120 -21 -30
-53 34 -12 74 -33 90 -46 26 -22 27 -24 8 -34 -25 -13 -83 -13 -140 1 -34 7
-46 7 -52 -3 -11 -17 -5 -23 38 -37 22 -7 50 -21 63 -32 38 -29 11 -40 -90
-37 -106 4 -109 -8 -21 -59 90 -53 90 -63 -3 -63 -49 0 -76 -4 -76 -11 0 -6
18 -32 40 -57 51 -58 42 -73 -32 -49 -30 9 -56 13 -61 8 -8 -8 16 -58 34 -71
9 -7 23 -60 16 -60 -3 0 -33 12 -67 26 -33 15 -63 24 -66 21 -3 -2 5 -34 18
-70 12 -36 20 -69 16 -72 -9 -9 -37 7 -88 50 -50 42 -67 33 -50 -26 6 -19 10
-49 10 -68 l0 -34 -26 24 c-14 13 -34 39 -46 57 -11 18 -25 31 -32 29 -6 -2
-14 -34 -17 -70 -3 -37 -8 -70 -12 -73 -9 -9 -55 46 -69 84 -9 23 -18 32 -35
32 -13 0 -23 3 -23 8 0 12 210 225 270 273 156 125 206 187 246 305 25 73 26
87 21 194 -5 100 -14 155 -56 340 -8 39 15 165 45 240 35 87 88 166 159 235
l72 71 61 1 c34 1 62 -2 62 -6z m-3630 -53 c19 -9 71 -29 115 -44 57 -19 91
-38 119 -65 36 -34 38 -39 23 -53 -9 -9 -14 -23 -11 -31 8 -20 7 -19 -89 11
-237 77 -385 162 -336 196 21 14 139 4 179 -14z m4037 6 c18 -48 -137 -127
-411 -210 -13 -4 -17 -2 -13 7 2 8 -2 22 -10 31 -30 34 19 82 115 114 37 12
99 34 137 48 82 30 172 35 182 10z m-4692 -112 l20 -57 65 -21 c64 -21 65 -22
37 -33 -15 -6 -40 -14 -55 -17 -40 -10 -49 -20 -68 -77 -9 -29 -19 -55 -23
-59 -3 -4 -17 21 -29 56 l-23 63 -59 18 c-33 10 -60 21 -60 25 0 4 19 12 43
19 66 20 82 35 101 96 10 31 21 53 25 50 3 -4 15 -32 26 -63z m5200 1 c20 -56
20 -57 85 -79 39 -13 59 -24 50 -28 -8 -3 -37 -13 -65 -23 -45 -17 -51 -23
-68 -68 -10 -28 -20 -57 -23 -65 -4 -9 -15 11 -28 50 l-22 64 -62 20 c-34 11
-62 23 -62 26 0 4 27 15 59 25 63 19 70 27 91 105 6 23 14 39 18 35 4 -3 16
-32 27 -62z m-2568 -64 c76 -11 188 -28 248 -37 l110 -17 -3 -40 c-2 -22 8
-84 22 -138 19 -73 25 -119 24 -185 -2 -68 3 -101 20 -149 28 -79 28 -81 -5
-85 -23 -2 -29 -10 -38 -44 -8 -35 -13 -40 -26 -31 -23 15 -46 2 -70 -38 -12
-19 -24 -35 -28 -35 -4 0 -27 20 -50 45 -23 24 -47 42 -54 39 -6 -3 -25 -24
-41 -46 -32 -47 -25 -49 -81 26 l-20 27 -59 -35 c-32 -20 -62 -36 -66 -36 -4
0 -11 16 -14 35 -7 38 -33 47 -56 20 -19 -23 -29 -19 -52 21 -20 34 -23 36
-67 30 l-46 -5 92 87 c50 48 99 101 107 119 32 65 11 182 -37 204 -21 10 -62
57 -55 64 1 2 49 -18 105 -45 82 -39 104 -46 113 -35 9 10 -11 31 -89 94 -88
71 -171 156 -171 175 0 3 10 6 23 7 12 0 38 6 57 13 48 19 51 19 207 -5z
m-327 -28 c0 -5 36 -46 79 -90 72 -73 76 -79 42 -64 -140 61 -215 75 -256 49
-23 -15 -25 -15 -27 1 -2 33 3 68 14 80 21 25 148 46 148 24z m-1468 -46 c49
-13 72 -24 83 -42 15 -23 15 -26 0 -37 -14 -10 -15 -17 -7 -33 16 -29 8 -32
-52 -18 -177 41 -304 108 -280 147 10 15 173 4 256 -17z m3747 16 c12 -8 13
-12 1 -26 -18 -21 -90 -63 -132 -76 -120 -38 -204 -57 -212 -48 -6 6 -6 9 2 9
17 0 15 35 -3 50 -33 28 48 71 175 93 47 8 155 7 169 -2z m-3932 -151 c115
-15 216 -42 240 -63 21 -19 22 -22 7 -38 -11 -12 -14 -27 -10 -43 l6 -24 -88
24 c-128 35 -203 63 -239 91 -45 33 -43 53 7 62 3 0 38 -4 77 -9z m3983 -7
c24 -21 -101 -90 -220 -122 -129 -35 -144 -37 -136 -16 3 10 0 27 -8 39 -20
31 -1 53 63 72 107 31 278 47 301 27z m-4885 -121 c20 -56 20 -56 85 -78 38
-13 59 -24 50 -28 -8 -3 -37 -14 -65 -23 -42 -16 -52 -24 -62 -53 -6 -19 -17
-48 -23 -65 l-12 -30 -15 40 c-8 22 -19 52 -25 66 -7 20 -23 30 -69 45 -32 10
-59 22 -59 25 0 3 27 14 59 24 63 19 64 20 91 108 14 46 19 43 45 -31z m5701
6 l20 -62 62 -20 c34 -11 62 -22 62 -25 0 -3 -28 -15 -62 -26 l-61 -20 -22
-65 -23 -65 -12 30 c-7 17 -18 46 -24 65 -11 30 -20 37 -74 55 -34 11 -62 22
-62 25 0 3 28 14 63 25 l62 20 20 63 c11 34 23 62 26 62 3 0 14 -28 25 -62z
m-4633 -70 c52 -14 86 -55 63 -78 -6 -6 -11 -16 -11 -23 -1 -14 5 -14 -104 7
-175 35 -281 86 -228 110 21 10 229 -2 280 -16z m3801 16 c25 -9 19 -32 -11
-48 -42 -21 -155 -54 -231 -67 -72 -13 -72 -13 -73 -1 0 4 -7 15 -16 24 -42
47 74 96 234 97 45 1 88 -2 97 -5z m-3740 -194 c19 -18 19 -20 3 -38 -9 -10
-17 -26 -17 -35 0 -13 -9 -15 -57 -10 -87 8 -242 40 -259 54 -36 30 6 52 111
59 107 7 195 -5 219 -30z m3735 10 c12 -6 21 -15 21 -19 0 -25 -123 -58 -284
-75 -49 -5 -57 -4 -53 8 3 8 -2 25 -12 38 -18 22 -18 22 7 42 43 34 262 38
321 6z m-1519 -130 c15 -29 86 -247 116 -359 21 -79 23 -96 11 -102 -7 -4 -42
-29 -76 -54 l-63 -47 -82 21 c-152 38 -191 43 -357 48 -193 7 -309 -5 -474
-47 l-117 -29 -34 26 c-19 14 -34 29 -34 33 0 33 137 313 197 403 51 76 63 85
125 93 42 6 45 5 72 -35 32 -46 48 -51 70 -20 15 21 15 21 27 -25 6 -25 13
-46 14 -46 2 0 33 18 69 40 36 22 68 40 70 40 3 0 19 -20 36 -45 17 -25 37
-45 44 -45 8 0 29 20 47 44 l34 44 47 -44 c26 -24 52 -44 58 -44 6 0 23 20 38
45 25 42 42 57 42 36 0 -4 11 -20 25 -35 37 -40 53 -23 47 50 -3 41 -1 59 9
65 21 13 27 11 39 -11z m-2231 -16 c17 -4 31 -13 31 -20 0 -8 4 -14 10 -14 5
0 1 -13 -8 -30 -16 -28 -20 -30 -82 -30 -75 0 -184 16 -213 31 -16 9 -17 13
-6 25 36 36 177 56 268 38z m3680 -23 c27 -14 40 -26 34 -32 -16 -16 -145 -39
-223 -39 -74 0 -76 1 -86 28 -13 33 -1 56 31 65 11 3 61 5 110 3 71 -2 99 -7
134 -25z m-3602 -113 c-2 -7 0 -23 4 -36 6 -14 4 -30 -4 -42 -11 -18 -23 -20
-132 -20 -130 0 -158 7 -135 35 22 26 67 46 139 60 88 18 134 19 128 3z m3409
-2 c63 -13 145 -52 151 -72 6 -18 -33 -24 -153 -24 -108 0 -112 1 -128 24 -10
15 -12 27 -6 31 6 3 10 17 10 31 0 21 5 24 33 24 17 -1 59 -7 93 -14z m-3318
-152 c10 -3 9 -9 -2 -27 -14 -20 -14 -25 -1 -44 13 -19 13 -22 -3 -28 -31 -12
-249 -19 -256 -7 -8 13 37 45 122 88 64 31 88 34 140 18z m3232 -13 c90 -44
130 -71 130 -88 0 -14 -16 -15 -117 -10 -142 6 -156 10 -141 42 7 16 7 29 -1
43 -16 29 -15 30 22 35 17 2 35 5 39 5 4 1 35 -11 68 -27z m-3812 -29 c49 -62
62 -102 46 -140 -12 -30 -70 -76 -85 -67 -10 7 -11 245 -1 245 5 0 23 -17 40
-38z m627 -112 c-23 -25 -4 -59 38 -67 29 -6 24 -8 -38 -19 -84 -15 -184 -17
-204 -5 -12 8 -12 12 -2 25 23 28 79 57 143 75 70 20 87 18 63 -9z m3070 9
c103 -32 166 -79 133 -101 -7 -4 -38 -7 -68 -7 -60 0 -221 26 -180 28 14 1 33
8 43 15 19 14 23 51 7 61 -10 6 -14 25 -6 25 2 0 34 -9 71 -21z m1058 -91 c-9
-80 -22 -106 -73 -143 -27 -20 -51 -41 -53 -48 -10 -28 -15 1 -6 38 5 22 11
53 14 68 6 28 94 127 114 127 5 0 7 -19 4 -42z m-4582 -268 c28 -91 74 -235
101 -320 27 -85 61 -191 75 -235 14 -44 36 -111 49 -149 13 -39 21 -72 19 -75
-3 -2 -6 -2 -8 0 -5 6 -358 420 -392 459 -16 19 -48 55 -71 80 -22 25 -74 86
-116 135 -42 50 -117 137 -167 195 -82 95 -90 106 -74 118 38 28 95 35 178 22
173 -27 220 -22 278 30 l32 28 22 -61 c12 -34 45 -136 74 -227z m2103 280
c250 -24 481 -103 627 -216 203 -156 266 -349 172 -529 -39 -75 -80 -121 -168
-188 -70 -52 -119 -79 -260 -142 -50 -22 -234 -63 -339 -76 -128 -15 -361 -6
-488 20 -398 81 -662 286 -684 533 -14 144 80 295 254 411 221 147 557 218
886 187z m2323 -110 c-8 -68 -18 -92 -55 -132 -30 -32 -47 -36 -49 -10 -1 9
-4 33 -8 53 -6 33 -3 39 45 92 29 31 57 57 62 57 7 0 9 -21 5 -60z m-4955
-113 c48 -56 95 -111 105 -122 10 -11 102 -117 203 -235 102 -118 258 -300
348 -403 89 -104 162 -196 162 -204 0 -8 -5 -11 -10 -8 -6 4 -32 8 -57 10 -43
3 -52 8 -107 66 -32 35 -109 116 -169 179 -172 180 -303 316 -416 435 -58 61
-138 144 -179 186 l-74 76 41 54 c23 30 41 57 41 62 0 25 36 -5 112 -96z
m5113 -6 c-18 -55 -44 -82 -99 -105 -21 -9 -40 -16 -41 -16 -2 0 -1 19 2 43 7
53 41 100 101 137 45 28 47 28 50 9 2 -11 -4 -41 -13 -68z m-602 -52 c59 -61
87 -121 94 -200 7 -69 -3 -75 -48 -26 -61 65 -97 140 -114 240 -8 51 8 48 68
-14z m-4637 -81 c55 -57 146 -152 204 -213 102 -108 187 -197 444 -465 l130
-135 -35 -3 c-42 -4 -127 -30 -156 -49 -20 -13 -24 -12 -49 16 -21 24 -36 31
-64 31 -119 0 -238 48 -316 126 -64 65 -93 128 -134 289 -17 71 -45 155 -60
185 -15 31 -74 108 -129 173 -96 111 -100 117 -74 117 15 0 51 7 78 14 28 8
52 15 56 15 3 1 50 -45 105 -101z m4812 57 c44 -67 66 -158 57 -239 -3 -36
-10 -66 -14 -66 -10 0 -68 100 -79 140 -18 59 -20 210 -3 210 5 0 23 -20 39
-45z m256 3 c-7 -58 -12 -75 -41 -134 -19 -40 -34 -55 -66 -70 -23 -10 -44
-20 -47 -22 -3 -1 -7 21 -8 50 -1 34 3 60 14 77 21 32 132 141 144 141 5 0 7
-19 4 -42z m-395 -266 c64 -38 184 -108 266 -155 215 -123 204 -108 111 -151
l-79 -36 -161 92 c-89 50 -181 104 -206 119 l-45 28 -10 86 c-6 47 -7 85 -2
85 5 0 62 -31 126 -68z m536 49 c6 -11 -103 -80 -149 -93 -54 -15 -143 -15
-158 0 -29 29 72 88 172 100 60 8 128 4 135 -7z m93 -131 c23 -10 42 -23 42
-28 0 -19 -119 -55 -183 -55 -64 0 -167 37 -150 54 4 4 31 17 58 28 67 27 175
28 233 1z m-710 -133 c20 -13 97 -59 170 -102 72 -42 132 -80 132 -84 -1 -11
-91 -76 -101 -73 -5 1 -69 34 -140 74 -128 70 -131 72 -125 101 3 16 6 47 6
68 0 45 7 47 58 16z m-3 -247 c39 -26 89 -57 112 -70 l42 -23 -41 -56 c-23
-31 -43 -58 -44 -60 -2 -2 -9 1 -16 7 -22 17 -132 51 -177 53 -23 2 -44 6 -47
10 -4 6 56 164 73 192 5 9 6 8 98 -53z m-2588 -45 c43 -19 113 -44 156 -57 42
-12 77 -26 77 -29 0 -3 -14 -22 -30 -40 -17 -19 -44 -62 -60 -96 -32 -66 -75
-109 -118 -120 -15 -3 -43 -24 -62 -46 -41 -48 -138 -113 -193 -129 -32 -10
-40 -9 -48 3 -15 23 -10 67 11 110 26 51 19 62 -35 53 -25 -3 -59 -1 -79 6
-31 10 -36 16 -36 42 0 23 10 41 40 69 22 21 40 42 40 47 0 6 -17 13 -37 17
-42 7 -98 39 -106 58 -17 46 83 106 219 131 130 23 172 20 261 -19z m1496 14
c85 -18 176 -65 183 -96 12 -45 -18 -68 -108 -87 -37 -8 -35 -20 13 -67 73
-71 38 -125 -73 -114 -67 7 -69 2 -38 -66 25 -57 25 -86 -1 -99 -32 -18 -153
44 -220 112 -30 30 -70 60 -90 67 -45 15 -72 43 -99 103 -11 26 -39 69 -61 94
-22 26 -37 50 -32 54 4 4 37 15 73 24 36 9 106 35 155 56 85 37 94 39 168 34
44 -2 102 -9 130 -15z m-1157 -327 c1 -126 -2 -212 -7 -212 -5 0 -30 19 -54
41 l-45 42 0 146 c0 142 1 147 26 177 22 26 31 30 52 25 l27 -7 1 -212z m603
192 c19 -24 21 -40 21 -179 l0 -153 -47 -42 -48 -42 -3 213 c-3 221 -1 228 40
229 9 0 26 -12 37 -26z m-498 6 c18 0 19 -12 19 -234 l0 -235 -29 9 c-75 21
-71 6 -71 252 l0 221 31 -7 c17 -3 40 -6 50 -6z m391 -194 c0 -111 1 -210 2
-221 0 -13 -11 -26 -34 -37 -63 -31 -60 -40 -60 216 l0 235 33 3 c17 2 38 3
45 4 9 0 12 -47 14 -200z m-266 184 c12 0 14 -43 14 -241 l0 -241 -31 6 c-17
3 -38 6 -45 6 -12 0 -14 43 -14 241 l0 242 31 -7 c17 -3 38 -6 45 -6z m144
-230 l0 -237 -37 -7 c-21 -3 -44 -6 -50 -6 -10 0 -13 55 -13 243 l0 242 50 1
50 1 0 -237z m1116 179 c10 -17 -26 -47 -77 -64 -27 -9 -49 -20 -49 -24 0 -4
16 -22 35 -41 54 -52 44 -100 -22 -100 -37 0 -37 0 -22 34 15 32 6 64 -26 99
-24 25 -24 28 -8 33 65 20 103 56 103 100 0 12 6 11 30 -6 16 -11 32 -26 36
-31z m-3044 12 c-14 -24 -14 -31 -3 -45 7 -9 20 -16 27 -16 23 0 16 -16 -13
-29 -90 -42 -201 -53 -241 -25 -12 8 -22 19 -22 24 0 14 47 58 80 75 37 19
126 43 162 44 27 1 27 1 10 -28z m663 -3 c10 -31 53 -66 92 -73 10 -2 20 -4
22 -4 1 -1 -11 -17 -29 -37 -32 -37 -35 -60 -15 -106 6 -15 2 -18 -27 -18 -64
0 -76 39 -28 93 17 19 30 39 30 44 0 5 -27 21 -60 36 -33 16 -60 34 -60 42 0
13 45 55 59 55 4 0 11 -14 16 -32z m3111 8 c27 -9 68 -31 90 -51 37 -33 38
-35 20 -49 -42 -33 -138 -29 -243 11 -45 17 -57 33 -23 33 30 0 41 29 22 59
l-16 24 49 -6 c28 -3 73 -13 101 -21z m-3720 -187 c-17 -25 -6 -59 19 -59 36
0 9 -21 -51 -40 -80 -24 -170 -26 -202 -4 -23 16 -23 17 -5 36 35 39 141 80
223 86 30 2 31 2 16 -19z m3662 -5 c96 -28 143 -74 106 -101 -25 -19 -159 -12
-226 12 -46 16 -64 35 -34 35 25 0 41 29 28 51 -7 10 -12 22 -12 25 0 8 80 -4
138 -22z m-3108 -20 c0 -9 13 -28 30 -44 l29 -27 -76 -7 c-42 -3 -124 -6 -183
-6 l-108 0 -11 44 c-6 25 -11 47 -11 50 0 3 74 6 165 6 145 0 165 -2 165 -16z
m2835 -4 c15 -17 16 -24 7 -45 l-12 -25 -236 0 -237 0 25 23 c14 13 29 33 32
44 6 20 14 21 205 22 187 1 198 0 216 -19z m-2004 -105 c135 -153 395 -201
610 -111 12 5 18 -4 27 -44 20 -85 14 -140 -15 -140 -23 0 -100 57 -129 96
-15 19 -30 31 -34 27 -4 -4 -18 -42 -30 -84 -12 -42 -32 -88 -44 -103 -19 -23
-23 -25 -46 -13 -27 13 -59 89 -60 143 0 16 -6 38 -13 47 -11 16 -17 13 -59
-31 -50 -52 -107 -86 -136 -80 -22 4 -27 47 -12 120 6 32 9 62 6 67 -3 4 -26
4 -50 -2 -30 -7 -56 -7 -78 0 -28 8 -33 13 -32 39 2 30 42 104 57 104 4 0 21
-16 38 -35z m-1346 -39 c-14 -22 -14 -25 0 -40 9 -9 21 -16 26 -16 5 0 9 -4 9
-8 0 -18 -107 -46 -181 -46 -79 -1 -113 12 -102 40 13 35 153 92 231 93 32 1
32 1 17 -23z m238 -131 c54 -168 52 -198 -10 -125 -21 24 -62 71 -90 105 -29
33 -53 62 -53 66 0 3 18 23 40 45 22 21 40 45 40 52 0 8 6 12 12 10 7 -3 34
-71 61 -153z m3372 124 c28 -10 64 -32 79 -47 23 -25 25 -31 12 -41 -36 -30
-168 -22 -256 16 l-35 14 28 15 c30 16 32 25 16 56 -11 20 -10 20 47 13 32 -4
82 -16 109 -26z m-209 -89 c26 0 13 -25 -67 -132 -55 -73 -84 -105 -94 -101
-8 3 -15 9 -15 15 0 8 39 106 89 222 l21 48 27 -26 c14 -14 32 -26 39 -26z
m-977 -317 c120 -159 165 -254 128 -269 -46 -17 -287 147 -398 271 -15 17 -48
53 -73 80 -46 49 -65 89 -51 103 4 4 29 7 57 7 42 0 53 4 74 28 13 15 24 35
24 43 0 20 146 -140 239 -263z m-1206 236 c3 -11 19 -25 35 -31 l29 -11 -57
-86 c-31 -47 -75 -119 -96 -160 -34 -65 -48 -81 -109 -123 -77 -53 -115 -73
-159 -84 -29 -7 -29 -7 -23 31 8 51 48 125 115 215 65 87 54 75 161 184 47 47
88 86 92 86 4 0 9 -9 12 -21z m141 -57 c15 -45 3 -120 -34 -212 -21 -52 -50
-134 -64 -181 -29 -94 -66 -145 -180 -246 -72 -65 -91 -68 -82 -15 29 162 179
472 308 635 33 41 44 45 52 19z m221 -184 c-4 -62 -7 -203 -7 -313 1 -180 -2
-210 -24 -300 -25 -102 -69 -206 -91 -213 -33 -10 -54 243 -34 414 22 187 93
461 131 502 11 12 23 22 26 22 4 0 3 -51 -1 -112z m245 94 c0 -5 18 -21 40
-38 26 -18 55 -56 82 -104 38 -69 92 -153 167 -255 19 -27 32 -62 40 -108 6
-37 16 -96 22 -131 5 -35 9 -85 7 -111 l-3 -47 -27 27 c-54 54 -155 228 -212
365 -18 45 -136 394 -136 405 0 3 5 5 10 5 6 0 10 -4 10 -8z m481 -304 c55
-108 100 -295 73 -305 -18 -6 -155 129 -235 232 -75 97 -179 259 -179 279 0 6
10 16 22 21 13 6 28 21 35 35 12 26 12 25 138 -98 69 -68 135 -142 146 -164z
m-857 108 c-19 -76 -43 -193 -53 -261 -20 -132 -28 -151 -123 -282 -65 -89
-73 -82 -58 49 19 169 72 383 134 533 28 69 36 80 55 78 12 -2 34 3 49 11 15
8 28 13 29 12 2 -1 -13 -64 -33 -140z m491 -291 c27 -56 29 -70 33 -225 5
-218 -11 -265 -62 -177 -52 90 -117 315 -155 537 -29 165 -29 192 -3 220 12
13 25 33 28 44 5 14 25 -33 69 -159 34 -99 75 -207 90 -240z m-268 331 c16 -5
23 -30 41 -149 13 -78 32 -180 43 -225 18 -73 19 -93 10 -150 -20 -119 -52
-249 -65 -268 -12 -16 -15 -12 -28 32 -51 165 -78 513 -60 768 l4 58 18 -30
c10 -17 27 -33 37 -36z"/>
<path d="M3562 6855 c-8 -16 -26 -66 -42 -110 -15 -44 -83 -228 -150 -410 -67
-181 -123 -336 -124 -343 -1 -9 37 -13 164 -13 l165 -1 3 226 c1 124 1 328 0
454 -3 198 -5 223 -16 197z"/>
<path d="M5255 6613 c-54 -148 -127 -346 -162 -441 -34 -94 -63 -176 -63 -181
0 -15 22 -16 181 -13 l149 3 0 450 c0 247 -2 449 -4 449 -2 0 -47 -120 -101
-267z"/>
<path d="M3640 6428 l0 -447 143 -3 c196 -4 205 -2 178 50 -5 9 -21 49 -35 87
-63 169 -191 520 -228 625 -23 63 -45 119 -49 125 -5 5 -9 -188 -9 -437z"/>
<path d="M5420 6425 l0 -445 138 -1 c75 0 147 -2 159 -3 35 -4 47 8 34 33 -7
11 -39 96 -72 188 -34 93 -98 270 -144 394 -46 124 -87 238 -90 252 -20 78
-25 -9 -25 -418z"/>
<path d="M4376 5441 c-4 -5 18 -35 49 -66 62 -61 86 -68 130 -33 15 12 41 22
58 22 64 2 28 49 -50 66 -73 16 -180 22 -187 11z"/>
<path d="M4293 3828 c-17 -35 -56 -120 -88 -190 -39 -85 -66 -130 -82 -139
-40 -21 -26 -29 52 -29 43 0 75 4 75 10 0 6 -8 10 -19 10 -31 0 -43 23 -30 59
11 31 11 31 84 31 l73 0 16 -35 c19 -39 15 -55 -15 -55 -12 0 -19 -5 -17 -11
3 -8 36 -11 103 -10 105 2 121 6 92 22 -20 12 -60 72 -72 109 -10 32 -133 290
-138 290 -2 0 -17 -28 -34 -62z"/>
<path d="M4655 3882 c-51 -17 -85 -60 -85 -109 0 -66 19 -86 162 -167 66 -37
75 -78 23 -106 -53 -28 -131 16 -156 88 -6 18 -16 31 -21 30 -11 -4 -14 -145
-4 -155 2 -3 14 2 26 10 19 13 26 13 56 1 65 -27 143 -11 187 39 38 44 34 118
-9 158 -14 13 -57 40 -96 59 -39 19 -77 45 -85 57 -14 20 -13 24 11 48 14 14
33 25 43 25 34 0 85 -40 101 -80 10 -22 22 -38 27 -37 9 3 8 137 -1 146 -2 3
-10 -3 -17 -13 -11 -16 -15 -16 -49 -1 -38 15 -78 18 -113 7z"/>
<path d="M5061 3858 c-21 -47 -119 -255 -143 -304 -11 -23 -31 -48 -44 -55
-41 -21 -27 -29 51 -29 43 0 75 4 75 10 0 6 -8 10 -19 10 -31 0 -41 21 -26 57
13 30 15 31 84 35 l70 3 15 -33 c23 -47 20 -62 -9 -62 -14 0 -25 -4 -25 -10 0
-6 42 -10 105 -10 58 0 105 3 105 8 0 4 -9 13 -20 19 -11 7 -29 34 -41 60 -12
27 -47 104 -79 173 -31 69 -60 133 -63 143 -9 25 -20 21 -36 -15z"/>
<path d="M3700 3870 c0 -5 6 -10 13 -10 8 0 21 -8 30 -18 14 -16 17 -44 17
-176 l0 -158 -30 -11 c-50 -19 -34 -27 50 -27 44 0 80 2 80 6 0 3 -13 10 -29
15 -37 13 -41 29 -41 174 l1 120 27 -31 c15 -17 76 -89 136 -160 60 -71 114
-129 119 -129 5 0 9 69 8 167 -1 175 6 217 39 225 44 12 16 23 -55 23 -80 0
-94 -8 -45 -27 l30 -11 0 -96 c0 -53 -2 -96 -4 -96 -2 0 -30 33 -62 73 -32 39
-61 74 -64 77 -3 3 -19 22 -34 43 l-28 37 -79 0 c-46 0 -79 -4 -79 -10z"/>
<path d="M8255 4134 c-29 -31 -30 -36 -11 -73 20 -38 59 -53 152 -59 74 -4 82
-2 106 19 39 36 44 64 15 93 -31 31 -85 46 -170 46 -61 0 -71 -3 -92 -26z"/>
<path d="M795 3290 c-113 -36 -158 -102 -106 -153 17 -17 33 -22 69 -21 58 2
158 48 185 86 18 24 18 30 7 58 -13 31 -44 51 -78 49 -9 0 -44 -9 -77 -19z"/>
<path d="M7042 1715 c-17 -8 -32 -18 -32 -22 0 -10 168 -197 181 -202 17 -5
49 31 49 56 0 56 -65 139 -130 167 -30 12 -40 12 -68 1z"/>
<path d="M2204 1480 c-54 -22 -134 -136 -134 -191 0 -31 34 -69 61 -69 12 0
34 8 50 17 41 25 110 126 116 172 4 32 1 41 -22 59 -30 24 -39 25 -71 12z"/>
<path d="M4884 678 c16 -185 19 -203 42 -206 30 -4 64 28 74 71 10 47 -13 164
-37 189 -10 9 -33 20 -52 23 l-34 6 7 -83z"/>
</g>
</svg>
